<svg width="32" height="32" viewBox="0 0 32 32" fill="none" xmlns="http://www.w3.org/2000/svg">
<g clip-path="url(#clip0_314_114)">
<path d="M24.62 22.09H7.51004C6.97432 22.09 6.54004 22.5243 6.54004 23.06V23.41C6.54004 23.9457 6.97432 24.38 7.51004 24.38H24.62C25.1558 24.38 25.59 23.9457 25.59 23.41V23.06C25.59 22.5243 25.1558 22.09 24.62 22.09Z" fill="black"/>
<path d="M26.0804 17.69H26.0704C25.3083 17.69 24.6904 18.3078 24.6904 19.07V19.08C24.6904 19.8422 25.3083 20.46 26.0704 20.46H26.0804C26.8426 20.46 27.4604 19.8422 27.4604 19.08V19.07C27.4604 18.3078 26.8426 17.69 26.0804 17.69Z" fill="black"/>
<path d="M31.42 12.52H26.99V6.11C26.99 5.79 26.73 5.53 26.41 5.53H22.3V0.97C22.3 0.44 21.87 0 21.33 0H10.75C10.22 0 9.78 0.43 9.78 0.97V5.53H5.53C5.21 5.53 4.95 5.79 4.95 6.11V12.52H0.58C0.26 12.52 0 12.78 0 13.1V28.7C0 29.02 0.26 29.28 0.58 29.28H6.54V31.04C6.54 31.57 6.97 32.01 7.51 32.01H24.63C25.16 32.01 25.6 31.58 25.6 31.04V29.28H31.43C31.75 29.28 32.01 29.02 32.01 28.7V13.1C32.01 12.78 31.75 12.52 31.43 12.52H31.42ZM23.99 8.53V12.52H22.3V8.53H23.99ZM19.3 3V12.52H12.79V3H19.3ZM7.96 8.53H9.79V12.52H7.96V8.53ZM29 26.28H3V15.52H29V26.28Z" fill="black"/>
</g>
<defs>
<clipPath id="clip0_314_114">
<rect width="32" height="32" fill="white"/>
</clipPath>
</defs>
</svg>
