<svg width="17" height="17" viewBox="0 0 17 17" fill="none" xmlns="http://www.w3.org/2000/svg">
<mask id="mask0_99_138" style="mask-type:alpha" maskUnits="userSpaceOnUse" x="0" y="0" width="17" height="17">
<path d="M17 0H0V17H17V0Z" fill="#00A0DF"/>
</mask>
<g mask="url(#mask0_99_138)">
<path d="M12.1237 2.82083H12.0387V2.22052C12.0387 1.78489 11.6827 1.42896 11.2471 1.42896C10.8115 1.42896 10.4555 1.78489 10.4555 2.22052V2.82083H6.55086V2.22052C6.55086 1.78489 6.19492 1.42896 5.7593 1.42896C5.32367 1.42896 4.96773 1.78489 4.96773 2.22052V2.82083H4.88273C3.36336 2.82083 2.13086 4.05333 2.13086 5.5727V12.819C2.13086 14.3383 3.36336 15.5708 4.88273 15.5708H12.129C13.6484 15.5708 14.8809 14.3383 14.8809 12.819V5.5727C14.8809 4.05333 13.6484 2.82083 12.129 2.82083H12.1237ZM13.558 12.5586C13.558 13.4936 12.8037 14.248 11.8687 14.248H5.15367C4.21867 14.248 3.4643 13.4936 3.4643 12.5586V8.4627H13.558V12.5586ZM13.558 7.12927H3.45898V5.84364C3.45898 4.97239 4.11773 4.26583 4.96242 4.1702V4.88739C4.96242 5.32302 5.31836 5.67895 5.75398 5.67895C6.18961 5.67895 6.54555 5.32302 6.54555 4.88739V4.14896H10.4502V4.88739C10.4502 5.32302 10.8062 5.67895 11.2418 5.67895C11.6774 5.67895 12.0334 5.32302 12.0334 4.88739V4.1702C12.8834 4.2552 13.5527 4.96708 13.5527 5.84364V7.12927H13.558Z" fill="#4DFFF4"/>
<path d="M9.19616 12.9146C9.40335 13.1218 9.74335 13.1218 9.94522 12.9146L12.1977 10.6621C12.4049 10.4549 12.4049 10.1149 12.1977 9.91305C11.9905 9.71117 11.6505 9.70586 11.4487 9.91305L9.56803 11.7937L8.81897 11.0446C8.61178 10.8374 8.27178 10.8374 8.06991 11.0446C7.86803 11.2518 7.86272 11.5918 8.06991 11.7937L9.19616 12.9199V12.9146Z" fill="#4DFFF4"/>
</g>
</svg>
