<svg width="12" height="12" viewBox="0 0 12 12" fill="none" xmlns="http://www.w3.org/2000/svg">
<g clip-path="url(#clip0_69_2372)">
<path d="M6.00017 11.7902C2.81136 11.7902 0.209961 9.1888 0.209961 5.99999C0.209961 2.81118 2.81136 0.209778 6.00017 0.209778C9.18898 0.209778 11.7904 2.81118 11.7904 5.99999C11.7904 9.1888 9.18898 11.7902 6.00017 11.7902ZM6.00017 0.629358C3.03793 0.629358 0.629541 3.03775 0.629541 5.99999C0.629541 8.96223 3.03793 11.3706 6.00017 11.3706C8.96241 11.3706 11.3708 8.96223 11.3708 5.99999C11.3708 3.03775 8.96241 0.629358 6.00017 0.629358Z" stroke="white" stroke-width="0.5" stroke-miterlimit="10"/>
<path d="M3.98581 10.6237C3.61658 10.6237 3.35644 10.3972 3.28931 10.0112C3.22218 9.63354 3.25574 9.19717 3.28931 8.77759C3.32288 8.34962 3.36483 7.86291 3.23057 7.72864C3.11309 7.61116 2.08092 6.53703 2.43337 5.45452C2.58441 4.99298 1.65295 4.0699 0.956442 3.55801C0.864135 3.49088 0.83896 3.35661 0.906093 3.26431C0.973226 3.172 1.10749 3.14682 1.1998 3.21396C1.4012 3.35661 3.13826 4.64053 2.83616 5.572C2.61798 6.26011 3.17183 7.06571 3.53267 7.42654C3.8012 7.69508 3.75924 8.21536 3.70889 8.81116C3.67532 9.20557 3.64176 9.60836 3.70889 9.93564C3.74246 10.137 3.85155 10.2209 4.04455 10.2042C4.31309 10.179 4.56483 9.9692 4.56483 9.81815C4.56483 9.32305 4.86693 9.04612 5.11029 8.81955C5.15225 8.77759 5.2026 8.73563 5.24455 8.69368C5.26134 8.67689 5.26973 8.65172 5.24455 8.51745C5.2026 8.29088 5.15225 7.94682 5.56344 7.53563C6.15924 6.93983 6.65434 5.98319 6.37742 5.69787C6.28511 5.60557 6.24316 5.58878 5.94945 5.84892C5.76483 6.01675 5.55504 6.20137 5.28651 6.20137C4.87532 6.20137 4.77462 5.85731 4.6991 5.60557C4.64036 5.40417 4.57322 5.19438 4.397 5.01815C4.18721 4.80836 3.91029 4.69088 3.61658 4.5734C3.33127 4.45591 3.02917 4.33004 2.8026 4.10347C2.64316 3.94403 2.65155 3.79298 2.67672 3.71745C2.75225 3.44053 3.13826 3.33144 3.66693 3.20557C3.78441 3.18039 3.94385 3.13843 3.98581 3.12165C4.07812 3.0713 4.18721 3.04612 4.30469 3.02934C4.57323 2.97899 4.85015 2.93703 5.02637 2.54263C5.21099 2.13144 4.74945 1.20836 4.41378 0.72165C4.34665 0.629342 4.37183 0.495076 4.46413 0.427943C4.55644 0.36081 4.69071 0.385985 4.75784 0.478293C4.85854 0.629342 5.74805 1.94682 5.40399 2.71046C5.14385 3.30626 4.66553 3.39018 4.37183 3.44053C4.30469 3.44892 4.22078 3.46571 4.18721 3.48249C4.1033 3.53284 3.97742 3.55801 3.75924 3.61675C3.59141 3.65871 3.23057 3.74263 3.10469 3.82654C3.27253 3.98598 3.51588 4.08668 3.76763 4.19578C4.06973 4.32165 4.40539 4.46431 4.68232 4.73284C4.93406 4.98459 5.01798 5.28668 5.08511 5.50487C5.16903 5.79018 5.1942 5.79857 5.26973 5.79857C5.37882 5.79857 5.52148 5.6727 5.65574 5.55522C5.88232 5.35382 6.25994 5.00976 6.65434 5.41256C7.26693 6.02515 6.36903 7.30906 5.84036 7.83773C5.58022 8.09787 5.60539 8.26571 5.63896 8.45871C5.66413 8.60976 5.6977 8.81955 5.52148 8.99578C5.47952 9.03773 5.42917 9.08808 5.37882 9.13004C5.16064 9.33144 4.96763 9.50766 4.96763 9.81815C4.96763 10.2293 4.48931 10.5818 4.06134 10.6154C4.03616 10.6154 4.0026 10.6154 3.97742 10.6154L3.98581 10.6237Z" fill="white" stroke="white" stroke-width="0.5" stroke-miterlimit="10"/>
<path d="M9.98601 10.1203C9.98601 10.1203 9.93566 10.1203 9.91048 10.1035C9.80139 10.0616 9.75104 9.93569 9.793 9.83499C10.0699 9.15527 9.8937 8.90352 9.61678 8.6266C9.37342 8.38324 9.51608 8.07275 9.62517 7.821C9.78461 7.46016 9.86013 7.2252 9.61678 6.98184C9.39859 6.76366 9.16363 6.7217 8.90349 6.67974C8.53426 6.61261 8.06433 6.53709 7.93006 5.78184C7.82936 5.20282 8.03915 4.66576 8.4923 4.34688C8.84475 4.09513 9.25594 4.04478 9.54964 4.21261C9.86013 4.38883 10.8503 4.43079 11.4042 4.41401C11.5217 4.41401 11.614 4.49792 11.6224 4.61541C11.6224 4.73289 11.5385 4.8252 11.421 4.83359C11.2615 4.83359 9.86013 4.86716 9.34824 4.57345C9.20559 4.48953 8.95384 4.53988 8.74405 4.69093C8.42517 4.91751 8.27412 5.29513 8.34964 5.70632C8.43356 6.17625 8.61817 6.20142 8.97901 6.26855C9.25594 6.3189 9.60838 6.37764 9.91887 6.68813C10.3888 7.15806 10.1622 7.66156 10.0196 7.99723C9.96083 8.1231 9.88531 8.29932 9.91887 8.34128C10.3301 8.75247 10.5231 9.18044 10.1874 10.0028C10.1538 10.0867 10.0783 10.1371 9.9944 10.1371L9.98601 10.1203Z" fill="white" stroke="white" stroke-width="0.5" stroke-miterlimit="10"/>
<path d="M7.70359 3.13006C7.64485 3.13006 7.5945 3.13006 7.53576 3.10488C7.35114 3.04614 7.20849 2.89509 7.08261 2.64334C6.77212 1.97201 7.8966 0.939846 8.13156 0.746839C8.21548 0.671315 8.34974 0.679706 8.42527 0.763622C8.50079 0.847538 8.4924 0.981804 8.40849 1.05733C7.94695 1.46013 7.33436 2.1818 7.46863 2.46712C7.51058 2.55943 7.58611 2.6853 7.66163 2.71048C7.77072 2.74404 7.97212 2.62656 8.16513 2.51747C8.25744 2.46712 8.33296 2.40838 8.40009 2.34964C8.60988 2.1902 8.83646 2.01397 9.2896 2.2825C9.60849 2.46712 10.2043 2.44194 10.4141 2.40838C10.5316 2.39159 10.6323 2.47551 10.649 2.5846C10.6658 2.70208 10.5819 2.80278 10.4728 2.81957C10.4393 2.81957 9.60009 2.93705 9.08821 2.63495C8.87002 2.50908 8.85324 2.52586 8.66023 2.67691C8.58471 2.73565 8.4924 2.80278 8.37492 2.86992C8.14835 3.00418 7.93016 3.13006 7.70359 3.13006Z" fill="white" stroke="white" stroke-width="0.5" stroke-miterlimit="10"/>
</g>
<defs>
<clipPath id="clip0_69_2372">
<rect width="12" height="12" fill="white"/>
</clipPath>
</defs>
</svg>
