<svg width="16" height="16" viewBox="0 0 16 16" fill="none" xmlns="http://www.w3.org/2000/svg">
<g clip-path="url(#clip0_388_132)">
<path d="M8.99055 8.29001L8.49555 8.78501V6.63501C8.49555 6.36001 8.27055 6.13501 7.99555 6.13501C7.72055 6.13501 7.49555 6.36001 7.49555 6.63501V8.77501L7.00555 8.28501C6.81055 8.09001 6.49555 8.09001 6.30055 8.28501C6.10555 8.48001 6.10555 8.79501 6.30055 8.99001L7.68055 10.37C7.85555 10.545 8.14555 10.545 8.32555 10.37L9.70055 8.99501C9.89555 8.80001 9.89555 8.48501 9.70055 8.29001C9.50555 8.09501 9.19055 8.09501 8.99555 8.29001H8.99055Z" fill="white" stroke="white" stroke-width="0.5"/>
<path d="M13.3753 4.625L10.7153 1.965C10.4153 1.665 10.0103 1.495 9.58527 1.495H5.40527C3.61027 1.495 2.15527 2.95 2.15527 4.745V11.245C2.15527 13.04 3.61027 14.495 5.40527 14.495H10.5953C12.3903 14.495 13.8453 13.04 13.8453 11.245V5.75C13.8453 5.325 13.6753 4.92 13.3753 4.62V4.625ZM10.5003 3.165L12.1953 4.86H11.4003C10.9053 4.86 10.5003 4.455 10.5003 3.96V3.165ZM12.8453 11.25C12.8453 12.495 11.8403 13.5 10.5953 13.5H5.40527C4.16027 13.5 3.15527 12.495 3.15527 11.25V4.75C3.15527 3.505 4.16027 2.5 5.40527 2.5H9.50027V4.115C9.50027 5.07999 10.2853 5.865 11.2503 5.865H12.8453V11.25Z" fill="white" stroke="white" stroke-width="0.5"/>
</g>
<defs>
<clipPath id="clip0_388_132">
<rect width="16" height="16" fill="white"/>
</clipPath>
</defs>
</svg>
