<svg width="15" height="15" viewBox="0 0 15 15" fill="none" xmlns="http://www.w3.org/2000/svg">
<mask id="mask0_72_4021" style="mask-type:alpha" maskUnits="userSpaceOnUse" x="0" y="0" width="15" height="15">
<rect width="15" height="15" rx="7.5" fill="#EFEFEF"/>
</mask>
<g mask="url(#mask0_72_4021)">
<path fill-rule="evenodd" clip-rule="evenodd" d="M7.5 0C3.35786 0 0 3.35786 0 7.5C0 11.6421 3.35786 15 7.5 15C11.6421 15 15 11.6421 15 7.5C15 3.35786 11.6421 0 7.5 0ZM7.679 4.004C6.777 4.004 6.337 4.466 6.04 5.236L4.731 4.796C5.138 3.597 6.139 2.717 7.679 2.717C9.12 2.717 10.561 3.641 10.561 5.258C10.561 6.512 9.912 7.249 8.79 7.81C8.152 8.14 7.965 8.36 7.954 8.811L7.943 9.306H6.623L6.612 8.668C6.601 7.744 6.876 7.304 7.954 6.787C8.757 6.369 9.142 5.973 9.142 5.258C9.142 4.466 8.493 4.004 7.679 4.004ZM8.185 11.407C8.185 11.902 7.789 12.298 7.294 12.298C6.799 12.298 6.392 11.902 6.392 11.407C6.392 10.912 6.799 10.505 7.294 10.505C7.789 10.505 8.185 10.912 8.185 11.407Z" fill="#EFEFEF"/>
</g>
</svg>
