<svg width="32" height="32" viewBox="0 0 32 32" fill="none" xmlns="http://www.w3.org/2000/svg">
<g clip-path="url(#clip0_427_124)">
<path d="M31.5598 29.37L23.1398 21.18C25.2798 18.51 26.3998 14.99 25.8698 11.2C25.0598 5.47999 20.4098 0.899991 14.6798 0.179991C6.19979 -0.890009 -0.950212 6.25999 0.0997884 14.74C0.809788 20.46 5.36979 25.1 11.0698 25.93C14.8298 26.48 18.3298 25.39 20.9998 23.29L29.4298 31.49C30.0198 32.08 30.9698 32.08 31.5498 31.49C32.1398 30.9 32.1398 29.95 31.5498 29.37H31.5598ZM2.99979 13.07C2.99979 7.54999 7.48979 3.06999 12.9998 3.06999C18.5098 3.06999 22.9998 7.55999 22.9998 13.07C22.9998 18.58 18.5098 23.07 12.9998 23.07C7.48979 23.07 2.99979 18.58 2.99979 13.07Z" fill="black"/>
</g>
<defs>
<clipPath id="clip0_427_124">
<rect width="32" height="32" fill="white"/>
</clipPath>
</defs>
</svg>
